<svg width="12" height="13" viewBox="0 0 12 13" fill="none" xmlns="http://www.w3.org/2000/svg">
<path fill-rule="evenodd" clip-rule="evenodd" d="M9.67006 1.72646L8.79766 0.759792C8.61114 0.553125 8.28624 0.699792 8.28624 0.999792V3.85979C8.28624 4.04646 8.41861 4.19313 8.58707 4.19313H11.1682C11.439 4.19313 11.5713 3.83313 11.3848 3.62646L10.5124 2.65979L11.824 1.21979C12.0587 0.959792 12.0587 0.533125 11.824 0.273125C11.5894 0.013125 11.2043 0.013125 10.9697 0.273125L9.67006 1.72646ZM2.32993 10.4298L3.20234 11.3965C3.38886 11.6031 3.71376 11.4565 3.71376 11.1565V8.29646C3.71376 8.10979 3.58139 7.96312 3.41292 7.96312H0.831797C0.561049 7.96312 0.428684 8.32312 0.615199 8.52979L1.48761 9.49646L0.175986 10.9365C-0.058662 11.1965 -0.058662 11.6231 0.175986 11.8831C0.410634 12.1431 0.795697 12.1431 1.03035 11.8831L2.32993 10.4298Z" fill="black" fill-opacity="0.54"/>
</svg>
